<?xml version="1.0" encoding="UTF-8"?>
<svg xmlns="http://www.w3.org/2000/svg" xmlns:xlink="http://www.w3.org/1999/xlink" style="display:none">
  <symbol id="logo" fill="currentColor" viewBox="0 0 800 246">
  <path d="M267.20833,84.25882V20.09335h18.2797v48.87197h23.40789v15.29351h-41.68759Z"></path>
  <path d="M314.02411,84.25882V20.09335h18.2797v64.16548h-18.2797Z"></path>
  <path d="M340.97691,84.25882V20.09335h39.63491v14.9222h-21.35521v11.84669h17.62466v14.82412h-17.62466v22.57246h-18.2797Z"></path>
  <path d="M400.00893,84.25882v-48.87197h-15.29526v-15.29351h48.68281v15.29351h-15.10786v48.87197h-18.2797Z"></path>
  <path d="M439.08514,84.25882V20.09335h18.2797v64.16548h-18.2797Z"></path>
  <path d="M466.03618,84.25882V20.09335h16.78748l10.53837,20.61086c.31.62351.69882,1.36612,1.1647,2.24183.46588.86871.93351,1.76544,1.39939,2.70421.46588.93176.85295,1.80047,1.1647,2.60613l.46763-.09107v-28.07196h17.15878v64.16548h-16.78573l-11.37906-21.54262c-.62176-1.24702-1.1647-2.47302-1.63058-3.68501-.46763-1.21199-.9195-2.38195-1.35211-3.49586l-.46763.09107c.0613,1.18397.09458,2.40997.09458,3.68501v24.9474h-17.16053Z"></path>
  <path d="M546.70715,85.37273c-8.02156,0-14.16208-2.74625-18.41981-8.25275-4.25948-5.4995-6.38747-13.8153-6.38747-24.9474,0-7.51715,1.05611-13.73824,3.17009-18.64925s5.19125-8.561,9.23355-10.95696c4.04055-2.39596,9.01287-3.59394,14.92045-3.59394,3.8549,0,7.32099.49741,10.39825,1.49222,3.07902.99481,5.72018,2.50805,7.92873,4.5257,2.20505,2.01765,3.90044,4.55372,5.08266,7.60122,1.18047,3.04749,1.7707,6.62041,1.7707,10.72577h-17.53184c0-1.31007-.15588-2.53607-.46763-3.68501s-.77764-2.15776-1.39764-3.03348c-.62351-.86871-1.39939-1.53425-2.33116-2.00364-.93351-.46238-2.0842-.70057-3.45207-.70057-1.67787,0-3.07727.26622-4.19643.79165-1.11917.53244-2.00539,1.33809-2.65692,2.43099-.65328,1.08589-1.11917,2.43799-1.39939,4.05632-.28023,1.61132-.42034,3.48185-.42034,5.59057v10.82385c0,2.85834.26447,5.2543.7934,7.18087.52718,1.92658,1.42917,3.35574,2.70421,4.28751,1.27329.93176,3.03173,1.40115,5.27006,1.40115,1.73917,0,3.17009-.39232,4.28926-1.16996s1.97386-1.81448,2.5641-3.12456c.59023-1.30307.88622-2.70421.88622-4.19643v-.46238h-9.04615v-13.05868h26.39233v35.81329h-9.4192l-1.30482-6.06696c-1.18222,1.37312-2.55009,2.59913-4.10361,3.68501-1.55527,1.09289-3.38902,1.94759-5.503,2.5641-2.11398.62351-4.56949.93176-7.36652.93176Z"></path>
  <path d="M267.20833,170.34522v-64.16548h18.2797v64.16548h-18.2797Z"></path>
  <path d="M294.15937,170.34522v-64.16548h16.78748l10.53837,20.61086c.31.62351.69882,1.36612,1.1647,2.24183.46588.86871.93351,1.76544,1.39939,2.70421.46588.93176.85295,1.80047,1.1647,2.60613l.46763-.09107v-28.07196h17.15878v64.16548h-16.78573l-11.37906-21.54262c-.62176-1.24702-1.1647-2.47302-1.63058-3.68501-.46763-1.21199-.9195-2.38195-1.35211-3.49586l-.46763.09107c.0613,1.18397.09458,2.40997.09458,3.68501v24.9474h-17.16053Z"></path>
  <path d="M373.804,171.45914c-3.3575,0-6.48205-.29424-9.37367-.88272-2.88986-.58848-5.43995-1.63233-7.64675-3.12456s-3.94948-3.58693-5.22277-6.29114c-1.27504-2.71122-1.91081-6.14402-1.91081-10.30543v-.79865c0-.39933.02977-.7286.09283-.9738h17.34619v1.77245c0,1.67437.2487,2.94941.74611,3.81812.49741.87572,1.18047,1.4642,2.05268,1.77245.86871.31526,1.832.46938,2.88986.46938.56046,0,1.08764-.04904,1.58505-.14011.49736-.09107.96329-.25221,1.39939-.46938.43436-.21718.80741-.49741,1.11917-.84069.31-.33628.56046-.77063.74611-1.30307.1874-.52543.28023-1.0999.28023-1.72341,0-1.18397-.38882-2.15776-1.16645-2.9354s-1.81799-1.45019-3.12456-2.01064c-1.30482-.56046-2.76726-1.11391-4.38208-1.67437-1.61832-.56046-3.2962-1.16996-5.03712-1.82149-1.74092-.65153-3.4188-1.44318-5.03537-2.37494-1.61832-.93176-3.07727-2.12974-4.38384-3.59394-1.30482-1.45719-2.34692-3.21563-3.1228-5.26831-.77939-2.05268-1.16645-4.50468-1.16645-7.37003,0-3.72705.62001-6.87963,1.86528-9.46474,1.24352-2.57811,2.93715-4.67282,5.08266-6.29114,2.1455-1.61832,4.56949-2.80229,7.2737-3.5449,2.70421-.74961,5.54854-1.12092,8.53298-1.12092s5.79724.34328,8.44015,1.02284c2.64291.68656,4.9583,1.75844,6.94793,3.22264,1.98963,1.45719,3.55891,3.36976,4.7096,5.73069,1.15069,2.36794,1.72516,5.22627,1.72516,8.58202v2.14375h-17.15878v-.84069c0-1.05086-.1261-1.98262-.37306-2.79529-.2487-.80566-.68481-1.44318-1.30657-1.91256-.62176-.46238-1.52375-.70057-2.70421-.70057-.99481,0-1.83375.17514-2.51856.51842-.68481.33628-1.18047.79165-1.49047,1.35211-.31351.56046-.46763,1.21199-.46763,1.9546,0,1.24702.38882,2.30488,1.16645,3.1736.77588.86871,1.81799,1.61832,3.12456,2.23483,1.30482.62351,2.76551,1.19798,4.38208,1.73042,1.61657.52543,3.29444,1.0999,5.03712,1.72341,1.73917.62351,3.4188,1.38013,5.03537,2.28387s3.09303,2.05268,4.42937,3.45382c1.33634,1.39414,2.37845,3.07552,3.12456,5.03011.74611,1.9616,1.11917,4.33655,1.11917,7.13884,0,4.84796-.93176,8.85524-2.79704,12.02884-1.86528,3.1736-4.49242,5.53453-7.88145,7.0898-3.38902,1.54827-7.38229,2.3259-11.9833,2.3259Z"></path>
  <path d="M402.52749,170.34522v-64.16548h28.91089c4.04055,0,7.39805.90374,10.07249,2.70421,2.67093,1.80748,4.66231,4.32254,5.96713,7.55218,1.30657,3.23665,1.95985,6.99872,1.95985,11.28623,0,4.47666-.68481,8.39286-2.05268,11.74861-1.36787,3.36275-3.40303,5.96888-6.109,7.83941-2.70421,1.86352-6.04594,2.79529-10.0252,2.79529h-10.44379v20.23955h-18.2797ZM420.80719,135.835h5.78148c1.61657,0,2.76551-.71458,3.45032-2.14375.68306-1.42917,1.02634-3.26467,1.02634-5.4995,0-1.55527-.14011-2.89337-.42034-4.01428-.28023-1.11391-.74611-1.98963-1.39939-2.60613-.65153-.62351-1.53776-.93877-2.65692-.93877h-5.78148v15.20243Z"></path>
  <path d="M454.47322,170.34522v-64.16548h43.17981v14.9222h-24.90011v9.32463h20.98391v14.74005h-20.98391v10.25639h25.45882v14.9222h-43.73852Z"></path>
  <path d="M529.45379,171.45914c-5.90758,0-10.80283-1.19097-14.68751-3.58693-3.88643-2.39596-6.77804-6.05996-8.67309-11.006-1.89855-4.93904-2.84433-11.17414-2.84433-18.69829,0-11.18815,2.23833-19.51796,6.71499-24.99644,4.47491-5.46447,11.06555-8.20371,19.77017-8.20371,4.97407,0,9.21779.94577,12.72941,2.84433,3.51337,1.89855,6.20182,4.86898,8.0671,8.90428,1.86528,4.04231,2.79879,9.33163,2.79879,15.85397h-17.53359c0-2.66918-.20141-4.95305-.606-6.8516-.40458-1.89855-1.08764-3.32772-2.05093-4.28751-.96504-.96679-2.31714-1.45019-4.05807-1.45019-1.86528,0-3.32597.49741-4.38208,1.49222-1.05787.99481-1.78821,2.445-2.19279,4.33655-.40458,1.89855-.606,4.24547-.606,7.04076v10.82385c0,2.79529.21718,5.15622.65328,7.08279.43436,1.92658,1.16645,3.37676,2.19104,4.33655,1.02634.96679,2.47127,1.45019,4.33655,1.45019,1.80398,0,3.21738-.46938,4.24372-1.40115s1.77245-2.3189,2.23833-4.14739c.46588-1.8355.69882-4.06332.69882-6.66945h17.06771c0,6.27713-.91775,11.41934-2.7515,15.43362-1.83375,4.00728-4.5222,6.96369-8.0671,8.85524-3.54315,1.89855-7.89721,2.84433-13.05693,2.84433Z"></path>
  <path d="M572.35163,170.34522v-48.87197h-15.29526v-15.29351h48.68281v15.29351h-15.10786v48.87197h-18.2797Z"></path>
  <path d="M611.42783,170.34522v-64.16548h18.2797v64.16548h-18.2797Z"></path>
  <path d="M663.83945,171.45914c-5.96888,0-10.9447-1.16295-14.9222-3.49586-3.97925-2.33291-6.99522-5.93385-9.04615-10.81685-2.05268-4.87599-3.07727-11.17414-3.07727-18.88745,0-7.7063,1.02459-13.99745,3.07727-18.88044,2.05093-4.88299,5.06689-8.49094,9.04615-10.81685,3.9775-2.33291,8.95332-3.50286,14.9222-3.50286,5.90583,0,10.86413,1.16996,14.87491,3.50286,4.00903,2.3259,7.025,5.93385,9.04615,10.81685,2.0194,4.88299,3.02998,11.17414,3.02998,18.88044,0,7.71331-1.01058,14.01146-3.02998,18.88745-2.02115,4.88299-5.03712,8.48394-9.04615,10.81685-4.01078,2.33291-8.96909,3.49586-14.87491,3.49586ZM663.83945,156.54394c1.61482,0,2.95116-.29424,4.00903-.88973,1.05611-.58848,1.91256-1.45719,2.56585-2.61314.65153-1.14894,1.11917-2.51506,1.39764-4.09835.28023-1.5903.42034-3.34173.42034-5.26831v-10.82385c0-1.92658-.14011-3.67801-.42034-5.26831-.27848-1.58329-.74611-2.94941-1.39764-4.10536-.65328-1.14894-1.50973-2.01765-2.56585-2.60613-1.05787-.59549-2.39421-.88973-4.00903-.88973-1.67962,0-3.04749.29424-4.10361.88973-1.05787.58848-1.89855,1.45719-2.51856,2.60613-.62176,1.15595-1.07188,2.52206-1.35211,4.10536-.28023,1.5903-.42034,3.34173-.42034,5.26831v10.82385c0,1.92658.14011,3.67801.42034,5.26831.28023,1.58329.73035,2.94941,1.35211,4.09835.62001,1.15595,1.46069,2.02466,2.51856,2.61314,1.05611.59549,2.42398.88973,4.10361.88973Z"></path>
  <path d="M697.97136,170.34522v-64.16548h16.78748l10.53837,20.61086c.31.62351.69882,1.36612,1.1647,2.24183.46588.86871.93351,1.76544,1.39939,2.70421.46588.93176.85295,1.80047,1.1647,2.60613l.46763-.09107v-28.07196h17.15878v64.16548h-16.78573l-11.37906-21.54262c-.62176-1.24702-1.1647-2.47302-1.63058-3.68501-.46763-1.21199-.9195-2.38195-1.35211-3.49586l-.46763.09107c.0613,1.18397.09458,2.40997.09458,3.68501v24.9474h-17.16053Z"></path>
  <path d="M777.61599,171.45914c-3.3575,0-6.48205-.29424-9.37367-.88272-2.88986-.58848-5.43995-1.63233-7.64675-3.12456-2.2068-1.49222-3.94948-3.58693-5.22277-6.29114-1.27504-2.71122-1.91081-6.14402-1.91081-10.30543v-.79865c0-.39933.02977-.7286.09283-.9738h17.34619v1.77245c0,1.67437.2487,2.94941.74611,3.81812.49741.87572,1.18047,1.4642,2.05268,1.77245.86871.31526,1.832.46938,2.88986.46938.56046,0,1.08764-.04904,1.58505-.14011s.96329-.25221,1.39939-.46938c.43436-.21718.80741-.49741,1.11917-.84069.31-.33628.56046-.77063.74611-1.30307.1874-.52543.28023-1.0999.28023-1.72341,0-1.18397-.38882-2.15776-1.16645-2.9354s-1.81799-1.45019-3.12456-2.01064c-1.30482-.56046-2.76726-1.11391-4.38208-1.67437-1.61832-.56046-3.2962-1.16996-5.03712-1.82149s-3.4188-1.44318-5.03537-2.37494c-1.61832-.93176-3.07727-2.12974-4.38384-3.59394-1.30482-1.45719-2.34692-3.21563-3.1228-5.26831-.77939-2.05268-1.16645-4.50468-1.16645-7.37003,0-3.72705.62001-6.87963,1.86528-9.46474,1.24352-2.57811,2.93715-4.67282,5.08266-6.29114s4.56949-2.80229,7.2737-3.5449c2.70421-.74961,5.54854-1.12092,8.53298-1.12092s5.79724.34328,8.44015,1.02284c2.64291.68656,4.9583,1.75844,6.94793,3.22264,1.98963,1.45719,3.55891,3.36976,4.7096,5.73069,1.15069,2.36794,1.72516,5.22627,1.72516,8.58202v2.14375h-17.15878v-.84069c0-1.05086-.1261-1.98262-.37306-2.79529-.2487-.80566-.68481-1.44318-1.30657-1.91256-.62176-.46238-1.52375-.70057-2.70421-.70057-.99481,0-1.83375.17514-2.51856.51842-.68481.33628-1.18047.79165-1.49047,1.35211-.31351.56046-.46763,1.21199-.46763,1.9546,0,1.24702.38882,2.30488,1.16645,3.1736.77588.86871,1.81799,1.61832,3.12456,2.23483,1.30482.62351,2.76551,1.19798,4.38208,1.73042,1.61657.52543,3.29444,1.0999,5.03712,1.72341,1.73917.62351,3.4188,1.38013,5.03537,2.28387s3.09303,2.05268,4.42937,3.45382c1.33634,1.39414,2.37845,3.07552,3.12456,5.03011.74611,1.9616,1.11917,4.33655,1.11917,7.13884,0,4.84796-.93176,8.85524-2.79704,12.02884-1.86528,3.1736-4.49242,5.53453-7.8815,7.0898-3.38897,1.54827-7.38223,2.3259-11.98324,2.3259Z"></path>
  <path d="M267.49381,197.11412h4.1579v23.44818h-4.1579v-23.44818Z"></path>
  <path d="M280.51396,197.11412h4.27349l7.28421,13.17778,2.42398,5.0091h.14362c-.20141-2.42398-.53068-5.39441-.53068-8.00755v-10.17932h3.95824v23.44818h-4.27349l-7.28596-13.19879-2.42223-4.98808h-.14362c.19966,2.48003.53068,5.31034.53068,7.91647v10.2704h-3.95824v-23.44818Z"></path>
  <path d="M305.34401,217.55683l2.42398-2.85133c1.67787,1.59731,3.92846,2.66918,6.109,2.66918,2.63766,0,4.08609-1.19798,4.08609-3.02648,0-1.92658-1.51324-2.54308-3.64298-3.44682l-3.20512-1.38713c-2.30839-.96679-4.73938-2.78828-4.73938-6.22109,0-3.73405,3.2997-6.6064,7.87269-6.6064,2.73924,0,5.39266,1.12792,7.22816,2.98444l-2.13675,2.64116c-1.49222-1.26804-3.08252-2.01064-5.09141-2.01064-2.22257,0-3.671,1.03685-3.671,2.75325,0,1.84251,1.78646,2.52206,3.7288,3.31371l3.16304,1.33109c2.78832,1.15595,4.73942,2.92139,4.73942,6.31917,0,3.80411-3.15608,6.9707-8.41914,6.9707-3.16834,0-6.22284-1.24702-8.44541-3.43281Z"></path>
  <path d="M329.40344,197.11412h7.38579c5.20526,0,9.06191,1.80748,9.06191,7.22991,0,5.22627-3.87242,7.60122-8.92004,7.60122h-3.36976v8.61705h-4.1579v-23.44818ZM336.58782,208.61752c3.49936,0,5.16147-1.39414,5.16147-4.27349,0-2.91438-1.81974-3.90219-5.30509-3.90219h-2.88286v8.17569h3.02648Z"></path>
  <path d="M353.18439,197.11412h14.10954v3.50286h-9.95164v6.00391h8.43315v3.50286h-8.43315v6.93567h10.31068v3.50286h-14.46858v-23.44818Z"></path>
  <path d="M374.15429,208.91877c0-7.67127,4.80418-12.232,10.73978-12.232,2.94065,0,5.27707,1.40115,6.75527,2.96342l-2.22257,2.68319c-1.20499-1.20499-2.61139-2.03166-4.44689-2.03166-3.81287,0-6.55211,3.22264-6.55211,8.48394,0,5.35238,2.52381,8.58902,6.45228,8.58902,2.07895,0,3.68501-.95978,5.00559-2.40997l2.22257,2.61314c-1.9003,2.2068-4.3453,3.41179-7.38579,3.41179-5.89357,0-10.56814-4.31553-10.56814-12.07087Z"></path>
  <path d="M403.68519,200.61698h-6.76929v-3.50286h17.69647v3.50286h-6.76929v19.94531h-4.1579v-19.94531Z"></path>
  <path d="M421.44296,197.11412h4.1579v23.44818h-4.1579v-23.44818Z"></path>
  <path d="M433.2301,208.74363c0-7.5872,4.22971-12.05686,10.33871-12.05686s10.33871,4.49067,10.33871,12.05686c0,7.5872-4.22971,12.24601-10.33871,12.24601s-10.33871-4.65881-10.33871-12.24601ZM449.63402,208.74363c0-5.2613-2.3802-8.4419-6.06521-8.4419s-6.06521,3.1806-6.06521,8.4419,2.3802,8.63106,6.06521,8.63106,6.06521-3.36976,6.06521-8.63106Z"></path>
  <path d="M461.54551,197.11412h4.27349l7.28421,13.17778,2.42398,5.0091h.14362c-.20141-2.42398-.53068-5.39441-.53068-8.00755v-10.17932h3.95824v23.44818h-4.27349l-7.28596-13.19879-2.42223-4.98808h-.14362c.19966,2.48003.53068,5.31034.53068,7.91647v10.2704h-3.95824v-23.44818Z"></path>
  <path d="M496.09426,214.39725c0-7.31398,10.82735-7.90246,10.82735-12.70839,0-1.23301-.56746-2.19279-1.90731-2.19279-1.46945,0-2.5028,1.219-2.5028,3.01246,0,4.04231,4.94079,9.49276,9.58734,12.5963,1.89855,1.27504,3.74982,2.17878,5.27707,2.51506l-1.03335,3.36976c-2.10697-.4834-4.43813-1.58329-6.71849-3.21563-5.51351-3.93722-10.57515-10.41051-10.57515-15.23746,0-3.22964,2.3224-5.84978,5.90758-5.84978,3.21213,0,5.19125,2.00364,5.19125,4.97407,0,6.13702-10.10927,7.76935-10.10927,12.49122,0,2.17878,1.71991,3.64298,4.04406,3.64298,1.79172,0,3.58518-1.03685,5.11944-2.5711,1.87754-1.94759,3.32597-4.49768,4.17191-7.61523h3.7866c-1.04736,3.51688-2.68144,6.73251-5.10543,9.50677-2.09296,2.31189-4.86198,3.87417-8.47518,3.87417-4.68158,0-7.48562-2.90738-7.48562-6.59239Z"></path>
  <path d="M532.73072,208.91877c0-7.67127,4.80418-12.232,10.73978-12.232,2.94065,0,5.27707,1.40115,6.75527,2.96342l-2.22257,2.68319c-1.20499-1.20499-2.61139-2.03166-4.44689-2.03166-3.81287,0-6.55211,3.22264-6.55211,8.48394,0,5.35238,2.52381,8.58902,6.45228,8.58902,2.07895,0,3.68501-.95978,5.00559-2.40997l2.22257,2.61314c-1.9003,2.2068-4.3453,3.41179-7.38579,3.41179-5.89357,0-10.56814-4.31553-10.56814-12.07087Z"></path>
  <path d="M557.52926,197.11412h14.11129v3.50286h-9.95339v6.00391h8.43315v3.50286h-8.43315v6.93567h10.31068v3.50286h-14.46858v-23.44818Z"></path>
  <path d="M579.73216,197.11412h7.90071c4.87599,0,8.63281,1.72341,8.63281,6.95669,0,5.03712-3.75682,7.32799-8.63281,7.32799h-3.74281v9.16349h-4.1579v-23.44818ZM587.20377,208.07108c3.21213,0,4.96181-1.33109,4.96181-4.00027,0-2.69721-1.74968-3.62897-4.96181-3.62897h-3.31371v7.62924h3.31371ZM586.85174,210.28489l3.01071-2.48003,7.32099,12.75743h-4.67457l-5.65713-10.2774Z"></path>
  <path d="M608.60452,200.61698h-6.76929v-3.50286h17.69647v3.50286h-6.76929v19.94531h-4.1579v-19.94531Z"></path>
  <path d="M626.3623,197.11412h4.1579v23.44818h-4.1579v-23.44818Z"></path>
  <path d="M639.38245,197.11412h14.16734v3.50286h-10.00944v6.64844h8.51897v3.50286h-8.51897v9.79401h-4.1579v-23.44818Z"></path>
  <path d="M660.58178,197.11412h4.1579v23.44818h-4.1579v-23.44818Z"></path>
  <path d="M672.36892,208.91877c0-7.67127,4.80418-12.232,10.73978-12.232,2.94065,0,5.27707,1.40115,6.75527,2.96342l-2.22257,2.68319c-1.20499-1.20499-2.61139-2.03166-4.44689-2.03166-3.81287,0-6.55211,3.22264-6.55211,8.48394,0,5.35238,2.52381,8.58902,6.45228,8.58902,2.07895,0,3.68501-.95978,5.00559-2.40997l2.22257,2.61314c-1.9003,2.2068-4.3453,3.41179-7.38579,3.41179-5.89357,0-10.56814-4.31553-10.56814-12.07087Z"></path>
  <path d="M701.75621,197.11412h4.87599l7.64325,23.44818h-4.4031l-3.57117-12.4772c-.74436-2.48003-1.43267-5.15622-2.12098-7.72732h-.14362c-.64628,2.59212-1.33459,5.24729-2.07895,7.72732l-3.59919,12.4772h-4.24547l7.64325-23.44818ZM698.6299,210.94343h11.04103v3.26467h-11.04103v-3.26467Z"></path>
  <path d="M724.82082,200.61698h-6.76929v-3.50286h17.69647v3.50286h-6.76929v19.94531h-4.1579v-19.94531Z"></path>
  <path d="M742.57859,197.11412h4.1579v23.44818h-4.1579v-23.44818Z"></path>
  <path d="M754.36573,208.74363c0-7.5872,4.22971-12.05686,10.33871-12.05686s10.33871,4.49067,10.33871,12.05686c0,7.5872-4.22971,12.24601-10.33871,12.24601s-10.33871-4.65881-10.33871-12.24601ZM770.76965,208.74363c0-5.2613-2.3802-8.4419-6.06521-8.4419s-6.06521,3.1806-6.06521,8.4419,2.3802,8.63106,6.06521,8.63106,6.06521-3.36976,6.06521-8.63106Z"></path>
  <path d="M782.67939,197.11412h4.27349l7.28421,13.17778,2.42398,5.0091h.14362c-.20141-2.42398-.53068-5.39441-.53068-8.00755v-10.17932h3.95649v23.44818h-4.27174l-7.28596-13.19879-2.42223-4.98808h-.14362c.19966,2.48003.53068,5.31034.53068,7.91647v10.2704h-3.95824v-23.44818Z"></path>
  <path d="M107.60912,64.13365l-31.03538-44.32193,15.92446-2.27461,15.11093,21.5797,24.3355-34.75363-23.32251-3.33161-1.01406-.14711L.00005,16.25811l-.00005,163.40802,2.07719,2.09818c46.88933,47.319,101.38513,62.24436,103.68301,62.85736l1.84777.49387,1.84773-.49387c2.29789-.61299,56.79369-15.53832,103.68305-62.85729l2.0772-2.09817.00005-163.40802-67.34691-9.62037-40.25996,57.49584ZM155.20144,56.50944l7.395-33.27613,38.27186,5.46672-.00005,145.03247c-38.9011,38.21175-83.69044,53.52239-93.26027,56.47871-9.56982-2.95633-54.3592-18.267-93.26023-56.47877l.00005-145.03247,38.27182-5.4667,7.39413,33.27331c1.2735,5.73076,6.34872,9.81389,12.2195,9.83052l19.87571.05651.0002,6.93943c.00024,6.60052-3.64384,12.67148-9.48618,15.74321-3.62899,1.90791-7.45323,3.98003-9.78833,5.42294-6.93302,4.28149-13.4361,9.47044-18.37557,15.78527-6.7656,8.64902-9.54884,15.042-10.35779,28.04564-.50024,8.0603,1.42066,17.80065,4.17695,23.84711,4.33018,9.4971,9.60877,15.58187,17.12179,21.99919,11.10997,9.48837,24.64876,13.68687,40.09288,13.68687,23.62111,0,42.08692-12.42805,49.02872-32.15963,2.78546-7.91715,2.82115-21.44201,3.75836-28.46509.82035-6.14802,5.83207-18.05087,6.43149-19.64857.59966-1.59771,1.25207-6.002-3.39734-7.58572-5.29959-1.80481-9.66504,3.05639-11.69366,5.37436-1.35517,1.54864-9.92097,12.68507-15.47871,23.51062-5.97655,11.64171-11.68052,20.11688-18.26462,23.39918-13.58717,6.7744-24.76894-1.52523-26.1714-2.79851-5.17747-4.70248-9.91093-10.24475-9.13155-22.11192.55545-8.46073,7.62159-16.29602,15.25741-21.55146,0,0,13.57973-10.21716,19.36472-14.5628,3.24242-2.43555,6.11634-5.4818,8.01674-10.0929l11.72738,24.71214c1.0656,2.24541,3.76648,3.17932,5.99152,2.07172l.65686-.32698c2.05814-1.02456,2.99414-3.45044,2.15749-5.59186l-17.83029-45.63674.00016-.0055,17.06925-.05363c5.86948-.0184,10.94272-4.10089,12.21602-9.83055Z"></path>
</symbol>
</svg>
