<?xml version="1.0" encoding="UTF-8"?><svg id="a" xmlns="http://www.w3.org/2000/svg" viewBox="0 0 442 480"><rect x="171.13197" y="292.22373" width="5.87213" height="84.67917" fill="#002541"/><path d="M186.90393,376.9029h5.87213v-51.0186c0-5.1605-.73402-21.81484-1.02762-30.142h.29361c1.32123,8.56172,3.67007,24.74693,4.40408,28.85188l9.98261,52.30872h8.80818v-84.67917h-5.87212v50.3149c0,5.39507.73402,19.23461,1.46803,30.84573h-.29361l-14.82712-81.16063h-8.80818v84.67917Z" fill="#002541"/><path d="M235.30264,291.75459c-8.22097,0-12.62506,3.16672-12.62506,8.79632v12.31485c0,3.7531,1.32123,7.74074,4.11048,11.96297l12.03786,18.29631c2.49566,3.87038,3.08287,7.74077,3.08287,10.79017v14.54321c0,3.63582-2.05525,5.39507-6.89976,5.39507-5.2849,0-7.04654-1.64197-7.04654-5.04322v-15.48151h-5.2849v15.12966c0,5.98152,4.11048,8.9136,12.18464,8.9136,8.95499,0,12.91868-2.93208,12.91868-8.44447v-16.18521c0-4.10492-1.90844-8.91357-4.4041-12.78396l-11.89104-18.29634c-1.90844-2.8148-2.49566-5.51235-2.49566-8.32715v-13.13584c0-2.93208,2.34885-4.9259,6.45933-4.9259s6.16574,1.75925,6.16574,4.57405v14.89509h5.2849v-15.48151c0-4.69134-3.52328-7.5062-11.59745-7.5062Z" fill="#002541"/><path d="M261.22833,295.7423h6.31253c5.1381,0,7.19335,2.1111,7.19335,5.04319v26.97538c0,2.8148-2.49564,4.80862-7.19335,4.80862h-6.31253v-36.82718ZM255.35619,292.22373v84.67917h5.87213v-40.81488h7.34015c5.43172,0,12.03786-1.75925,12.03786-8.20987v-27.79636c0-5.04319-4.11049-7.85805-11.74425-7.85805h-13.50589Z" fill="#002541"/><polygon points="287.78093 292.22373 287.78093 376.9029 308.92058 376.9029 308.92058 373.38436 293.65307 373.38436 293.65307 335.14975 307.01215 335.14975 307.01215 331.63121 293.65307 331.63121 293.65307 295.7423 307.89297 295.7423 307.89297 292.22373 287.78093 292.22373" fill="#002541"/><path d="M337.11565,300.6682c0-5.51232-3.96367-8.9136-11.89105-8.9136-8.80817,0-12.47827,3.9877-12.47827,9.14817v67.43838c0,5.27779,4.11049,9.03089,12.33148,9.03089s12.03784-3.51853,12.03784-9.03089v-15.24694h-5.87213v14.66052c0,3.87038-1.46803,6.09877-5.8721,6.09877-4.99131,0-6.75295-2.46295-6.75295-5.27779v-68.25936c0-2.93208,2.20203-5.04319,6.45935-5.04319,4.55089,0,6.16571,2.58023,6.16571,6.21602v13.37041h5.87213v-14.19139Z" fill="#002541"/><polygon points="338.65215 292.22373 338.65215 295.7423 349.07514 295.7423 349.07514 376.9029 354.94727 376.9029 354.94727 295.7423 365.37029 295.7423 365.37029 292.22373 338.65215 292.22373" fill="#002541"/><rect x="369.28326" y="292.22373" width="5.8721" height="84.67917" fill="#002541"/><polygon points="385.05519 292.22373 385.05519 376.9029 406.19483 376.9029 406.19483 373.38436 390.92732 373.38436 390.92732 335.14975 404.28641 335.14975 404.28641 331.63121 390.92732 331.63121 390.92732 295.7423 405.16723 295.7423 405.16723 292.22373 385.05519 292.22373" fill="#002541"/><path d="M183.31663,401.53692h7.34015c4.99131,0,5.72531,2.11113,5.72531,5.62964v19.35189c0,3.7531-1.17441,5.62964-7.04654,5.62964h-6.01892v-30.61116ZM173.62763,394.85173v84.67913h9.689v-40.6976h7.34015c4.4041,0,6.31253,1.64197,6.31253,4.69137v36.00623h9.83581v-34.1297c0-7.38889-3.22966-9.85184-10.86341-9.85184,7.34015-.46913,10.12941-3.63582,10.12941-9.03089v-21.22843c0-6.21609-3.52328-10.43829-12.33146-10.43829h-20.11203Z" fill="#002541"/><polygon points="226.66886 479.53087 240.17473 479.53087 249.42332 415.61102 240.90875 415.61102 233.27499 472.37655 226.37525 415.61102 217.42026 415.61102 226.66886 479.53087" fill="#002541"/><path d="M276.82917,400.71594l7.19335,48.79019h-15.12071l7.92736-48.79019ZM270.22304,394.85173l-15.85473,84.67913h9.689l3.81687-23.57409h17.17598l4.11046,23.57409h9.68902l-15.26752-84.67913h-13.35909Z" fill="#002541"/><rect x="319.77643" y="394.85173" width="5.8721" height="84.67913" fill="#002541"/><path d="M374.07482,402.3579c0-4.69137-2.78925-7.9753-10.71663-7.9753-7.63377,0-11.01023,2.8148-11.01023,7.85802v12.54942h5.28492v-11.84572c0-3.28393,1.32121-5.04322,5.28492-5.04322,4.25728,0,5.8721,1.75928,5.8721,4.92594v25.21609c0,4.69137-1.90843,6.45062-6.75292,6.45062h-1.90846v3.51853h2.49567c4.84449,0,6.89974,1.4074,6.89974,5.74692v27.79633c0,3.16668-2.05525,4.92594-6.31253,4.92594-3.96371,0-6.01895-1.87653-6.01895-5.1605v-13.13581h-5.28489v13.83954c0,4.69134,3.67007,7.9753,11.15702,7.9753,8.07417,0,11.74423-2.93208,11.74423-8.09259v-27.79636c0-4.4568-1.61482-7.03704-7.34013-7.85802v-.23457c5.28492-1.17283,6.60613-3.40125,6.60613-7.15435v-26.50621Z" fill="#002541"/><path d="M390.51789,439.65425c0-3.63578,1.61485-5.04322,5.72535-5.04322,5.1381,0,6.60613,1.52472,6.60613,5.27779v31.66671c0,3.40125-1.61485,4.92594-6.16574,4.92594-4.84449,0-6.16574-1.75925-6.16574-5.04322v-31.784ZM391.39871,402.00605c0-2.81483,1.61485-4.10495,4.99131-4.10495,4.4041,0,5.57853,1.29012,5.57853,4.22223v24.39511c0,3.04937-1.32125,4.57409-5.1381,4.57409-4.55092,0-5.43174-1.87657-5.43174-4.33952v-24.74696ZM407.25344,401.77149c0-5.51235-4.69767-7.38889-10.42299-7.38889-7.63377,0-10.71663,2.93208-10.71663,7.38889v23.92598c0,3.63578,1.17443,6.45062,5.43171,7.03704v.23457c-4.25728.58642-6.31253,2.81483-6.31253,6.45062v32.83958c0,3.87035,2.78925,7.74074,11.15702,7.74074s11.74423-3.51853,11.74423-7.9753v-32.48773c0-3.5185-1.76161-5.98149-6.31253-6.5679v-.23457c3.96371-.58642,5.43171-2.93212,5.43171-6.91975v-24.04326Z" fill="#002541"/><path d="M418.55847,394.85173v47.03094h5.28489v-5.8642c0-6.0988,2.49567-9.26545,7.19338-9.26545,3.67007,0,5.1381,2.1111,5.1381,5.51235v37.6482c0,3.7531-1.17443,6.5679-6.01892,6.5679-4.4041,0-6.31256-2.1111-6.31256-5.62964v-12.78396h-5.28489v11.7284c0,6.68519,3.67007,10.20372,11.30384,10.20372,8.07417,0,11.59741-3.40125,11.59741-9.6173v-38.70375c0-5.27779-3.08285-8.44447-9.39538-8.44447-4.25728,0-6.60613,1.17287-8.22099,4.33952v-29.20376h15.70794v-3.5185h-20.99283Z" fill="#002541"/><path d="M7.82983,108.65539c-4.40428,0-7.82983,3.42093-7.82983,7.81922s3.42555,7.81929,7.82983,7.81929h33.4399c12.07099,0,22.02139,9.93703,22.02139,22.15461,0,10.58863-7.82983,19.87399-18.43272,22.15461-2.12058,0-3.42555,1.46614-5.05677,2.76933-1.46809,2.11774-1.46809,4.39836-.65248,6.35315,15.65965,42.51732,56.92939,71.02508,102.27717,71.02508,4.40425,0,7.82983-3.42093,7.82983-7.81929s-3.42556-7.16763-7.82983-7.16763c-36.21297,0-69.65288-21.34013-85.31254-53.92042,13.04972-5.70155,22.18453-19.05945,22.18453-34.04643,0-20.52559-16.31215-36.81577-36.86545-36.81577l-33.60302-.32577" fill="#002541"/><path d="M4.40428,139.28089c-1.46809,1.46608-2.12058,5.04989-2.12058,7.16763,3.42555,74.44601,64.75923,132.76479,139.46885,132.76479,4.40428,0,7.82984-3.42093,7.82984-7.81929s-3.42554-7.81929-7.82984-7.81929c-64.10673,0-117.28433-48.38175-123.80919-110.77306h22.0214c4.40428,0,7.82983-3.42093,7.82983-7.81922s-3.75179-7.81929-7.99295-7.81929H9.95041c-3.91491,0-5.54613,2.11774-5.54613,2.11774Z" fill="#002541"/><path d="M172.09315,138.62922c-2.77307,1.46614-5.05678,3.42093-5.05678,7.16769v121.5245c0,4.39836,3.42556,7.81929,7.82984,7.81929s7.82984-3.42093,7.82984-7.81929v-102.9537l109.45448,109.30692c2.77305,2.76927,7.82984,2.76927,10.6029,0,2.77305-2.7694,2.77305-7.81929,0-10.58863l-122.34109-122.17616c-1.95748-2.28062-5.54614-3.0951-8.31921-2.28062M134.41208,143.5163v59.62197c-16.31214-2.11774-31.31932-9.93703-41.92221-23.45787-2.77306-3.42093-7.17734-3.42093-10.6029-1.46608-3.42554,2.76927-3.42554,7.16763-1.46809,10.58856,15.00718,18.40792,37.84418,28.99654,61.17055,28.99654,4.40428,0,7.82984-3.421,7.82984-7.81929v-67.27838c0-4.39829-3.42554-7.81922-7.82984-7.81922s-7.17735,4.39836-7.17735,8.63377" fill="#002541"/><path d="M202.59687,212.42364c-2.77307,1.46608-5.05678,3.42093-5.05678,7.16763v48.38182c0,4.39836,3.42556,7.81929,7.82983,7.81929s7.82984-3.42093,7.82984-7.81929v-30.62557l35.56048,35.51257c2.77305,2.76933,7.82983,2.76933,10.6029,0,2.77305-2.76927,2.77305-7.81929,0-10.58856l-48.44708-48.38182c-1.79433-2.11767-5.38301-2.76927-8.31919-1.46608" fill="#002541"/><path d="M83.19195,114.35694c9.95041-22.80621,31.9718-38.44479,58.23437-38.44479,30.66683,0,56.92938,22.15461,62.47552,51.15109,4.40428-2.76933,9.29793-5.04996,14.19155-4.39836-7.82984-35.51251-39.14914-61.73965-76.83021-61.73965-30.34059.32577-56.60315,17.26754-69.32662,42.19149,4.07804,2.76933,8.48231,7.00475,11.25538,11.24022" fill="#e0aa26"/><path d="M141.58943,45.61248c49.09956,0,88.9012,37.79313,93.79485,85.19745l15.65967,15.63858v-5.70155c0-60.27357-49.09956-109.30692-109.4545-109.30692-43.39033-.81455-81.23451,24.761-99.01475,61.57676,5.70925,0,10.60289,1.46614,15.65966,2.76933,15.65966-29.64807,47.1421-50.17366,83.35507-50.17366" fill="#e0aa26"/><path d="M141.58943,14.98698c69.0004,0,124.46168,56.20104,124.46168,124.94543,0,7.16769-.65249,13.52084-1.4681,19.87399l12.8866,12.86925c2.77305-10.58856,3.42558-21.34013,3.42558-32.74324C280.8952,63.20585,218.41966,0,140.77384,0,80.4189,0,28.54627,39.09639,9.29794,93.01681h16.31215C44.69528,47.56727,89.71681,14.98698,141.58943,14.98698" fill="#e0aa26"/><path d="M212.54728,140.58408c-2.77305,2.76927-2.77305,7.81929,0,10.58856l122.34109,122.17623c2.77308,2.76927,7.82984,2.76927,10.6029,0,2.77308-2.7694,2.77308-7.81929,0-10.58863l-122.34109-122.17616c-2.77305-3.42093-7.01422-3.42093-10.6029,0" fill="#002541"/></svg>