<?xml version="1.0" encoding="UTF-8"?><svg id="a" xmlns="http://www.w3.org/2000/svg" viewBox="0 0 223.91205 120"><path d="M129.56591,82.70979c2.09151,2.613,7.80187,13.78689,4.63213,6.66982-.39528-.88151-1.28608-3.21985-3.58915-8.75762-.49179-1.18958-1.19143-2.62227-2.04511-4.23127h-4.0661c2.32162,3.01942,4.17558,5.20187,5.06823,6.31906Z" fill="#00b39f" stroke-width="0"/><path d="M222.7429,50.09562h-14.16733l-12.25026,26.29511h-15.56291l12.25212-26.29511h-15.35506l1.16916-2.52763h45.08342l-1.16915,2.52763Z" fill="#00b39f" stroke-width="0"/><path d="M45.08342,50.09562h-14.16362l-12.25212,26.29511H3.10293l12.25026-26.29511H0l1.16917-2.52763h45.08342l-1.16916,2.52763Z" fill="#00b39f" stroke-width="0"/><path d="M158.29584,49.79683c.23569.30807.47881.61613.70893.91863l.95575-.91863h-1.66468Z" fill="#00b39f" stroke-width="0"/><path d="M71.95755,48.53487c-.5419.12248-1.05225.26909-1.57744.40457.798,1.38259,1.57744,2.79301,2.31977,4.16446,3.02127-1.56631,6.49908-2.36431,10.45383-2.36431,2.85239,0,5.29836.33776,7.34348,1.01513,2.0414.67737,1.39743,4.34262,1.21,6.87952l5.64169.09465,4.04198-10.71736c-2.35504-.57345-13.55862-.75161-17.01786-.75161-4.29252-.00186-8.41244.36003-12.41544,1.27495Z" fill="#00b39f" stroke-width="0"/><path d="M74.50003,73.67752c-3.45924,0-6.21514-1.02255-7.8928-2.37174-1.67951-1.35289-2.38658-4.04569-2.12306-6.34134.33776-2.97117,1.76859-6.46011,4.25168-9.00629-1.30093-1.78715-2.69279-3.87495-3.40543-5.38188-1.35289.53448-2.6464,1.10978-3.83413,1.76117-3.04726,1.6721-5.51364,3.65411-7.40843,5.94233-1.89108,2.28823-2.999,4.84183-3.32192,7.65526-.40828,3.56689,1.12092,6.30236,4.58387,8.21386,3.46296,1.90964,8.58873,2.86353,15.37175,2.86353,2.51278,0,4.48366-.07052,5.90336-.20971,1.42156-.14104,2.95632-.34889,4.60243-.61613.52148-.08351,1.47166-.34889,2.49236-.64953-.56788-.90378-1.18216-1.89108-1.79458-2.87837-2.40699.69964-4.71192,1.01884-7.42513,1.01884Z" fill="#00b39f" stroke-width="0"/><path d="M87.56871,74.42727c1.38816-.32662,7.05026-2.44412,8.27324-3.29037l-4.60614-2.7262c-2.8227,1.97274-5.47467,3.01571-8.27324,3.94918-.11321.03897-.21899.05939-.33034.0965.54933,1.0504,1.07081,2.05068,1.53847,2.95261,1.31207-.39157,2.67052-.80728,3.39801-.98172Z" fill="#00b39f" stroke-width="0"/><path d="M122.16861,76.38887h2.3309c-.94833-1.23412-1.9746-2.61856-3.04725-4.12734l.71635,4.12734Z" fill="#00b39f" stroke-width="0"/><path d="M135.77548,73.00571l-4.48923-25.46556h-14.1098l2.43669,14.08196c3.67266,5.57303,6.81829,10.74519,8.95247,14.76675h10.59487l19.44713-18.68996c-.88893-1.49022-1.74077-2.9192-2.49979-4.20714l-20.33235,19.51395Z" fill="#00b39f" stroke-width="0"/><path d="M159.95866,49.79683l-.95575.91863c1.02442,1.33805,1.98387,2.62227,2.87467,3.84711l7.30636-7.02056h-12.64556c.59757.76274,1.18216,1.51249,1.75746,2.25482,0,0,1.66282,0,1.66282,0Z" fill="#00b39f" stroke-width="0"/><path d="M143.32309,47.54201v2.25482h10.58002c-.43797-.72377-.90193-1.47166-1.39557-2.25482h-9.18445Z" fill="#00b39f" stroke-width="0"/><path d="M68.73584,55.95815c1.11906,1.54033,2.16203,2.84868,2.613,3.34047,1.1469,1.25454,6.0611,5.22413,6.89623,7.10593.37487.8444,2.00243,3.53719,3.6838,6.25411.23383-.06681.46395-.12805.70336-.20229-2.23812-4.28508-4.91235-9.39787-6.05925-11.80116-.87224-1.82427-2.27152-4.5913-3.87309-7.54948-.80914.42127-1.59043.88337-2.33091,1.41599-.59572.42499-1.12834.91678-1.63313,1.43641Z" fill="#00b39f" stroke-width="0"/><path d="M88.06606,82.5836c.14661.14661-2.62413-4.73048-3.89722-7.17646-.15218.04268-.30064.08908-.44725.12805,1.35846,2.16945,4.34447,7.0484,4.34447,7.0484Z" fill="#00b39f" stroke-width="0"/><path d="M65.1801,40.90003c-3.65782-4.59872-6.79415-10.34619-10.34805-15.2604-3.5539-4.9105-6.06296-7.7332-10.97532-14.1098-4.91235-6.3766-1.49579-.48808,1.53476,4.04383,2.96003,4.42242,9.64841,13.93535,10.27753,14.76861.62727.83883.73305,5.01999,1.35846,6.06667.62727,1.04297,7.52535,10.66168,7.84084,12.85526.0464.34333.21899.79615.46395,1.31207,1.57373-.6217,3.25697-1.1636,5.04969-1.63683-1.80943-3.14005-3.67082-6.11121-5.20187-8.03941Z" fill="#00b39f" stroke-width="0"/><path d="M83.72159,75.53705c.14847-.03897.29693-.08537.44725-.12805-.46766-.90007-.98915-1.90036-1.53847-2.95261-.23754.07423-.46766.13548-.70336.20229.61242.98729,1.22855,1.97274,1.79458,2.87837Z" fill="#00b39f" stroke-width="0"/><path d="M114.19972,53.65508c-7.52349-10.76747-22.85442-30.99033-27.63501-37.3261-6.80715-9.02856,6.83684,10.14762,9.03228,13.70152,1.70921,2.77074,11.50423,17.77133,18.25198,30.14593,2.49793,4.57831,5.16289,8.6574,7.60329,12.08695l-1.83911-10.63941c-1.71107-2.60001-3.52978-5.27795-5.41343-7.96889Z" fill="#00b39f" stroke-width="0"/><path d="M140.64515,28.14869s-10.59302-12.81258-.41941.83698c1.13576,1.52177,7.61628,11.11079,12.27995,18.55634h4.03083c-5.79387-7.36946-12.4674-15.28639-15.89138-19.39331Z" fill="#00b39f" stroke-width="0"/><path d="M184.23279,93.16363c-1.78344-3.73948-13.90194-24.98119-18.39674-32.71624-.92606-1.59415-2.31421-3.62441-3.95847-5.8848l-3.26996,3.13819c4.32777,7.2544,9.66511,16.11037,10.88623,18.63614,1.56817,3.2384,7.00201,8.77988,11.18317,14.00402,4.18488,5.22598,15.50723,27.86328,3.55577,2.8227Z" fill="#00b39f" stroke-width="0"/></svg>