<?xml version="1.0" encoding="UTF-8"?><svg xmlns="http://www.w3.org/2000/svg" xmlns:xlink="http://www.w3.org/1999/xlink" viewBox="0 0 142.03338 120"><defs><linearGradient id="b" x1="113.99615" y1="27.41891" x2="113.99615" y2="57.38228" gradientUnits="userSpaceOnUse"><stop offset=".5" stop-color="#004546" stop-opacity="0"/><stop offset="1" stop-color="#004546"/></linearGradient></defs><g isolation="isolate"><g id="a"><path d="M0,37.74961l9.76025-2.7998,8.72021,29.28076h.16016l10.48047-29.28076,9.27979,2.7998-15.52002,38.64111h-9.28027L0,37.74961Z" fill="#004546" stroke-width="0"/><path d="M71.76904,69.83018c-3.92041,4.80078-8.64014,7.68066-15.04053,7.68066-11.52051,0-17.52051-10.87988-17.52051-20.64062,0-11.12012,6.96045-21.92041,18.96045-21.92041,5.92041,0,10.48047,2.7998,14.08057,6.80029l-5.52051,5.35986c-2.47998-2-4.71973-3.83984-8.16016-3.83984-6.08008,0-9.12012,6.56006-9.12012,12.72021,0,8.48047,3.76025,13.2002,8.64014,13.2002,3.6001,0,6.00049-2.16016,8.24023-4.48047l5.44043,5.12012Z" fill="#004546" stroke-width="0"/><path d="M76.4873,43.10996c8.7998-7.2002,13.28027-8.16016,17.6001-8.16016,6,0,11.52002,3.76025,11.52002,11.6001,0,1.43994,0,2.32031-.08008,3.36035l-.32031,11.60059c-.0791,1.83984-.15918,3.35938-.15918,5.04004,0,2.23926,1.12012,3.83984,2.16016,3.83984.47949,0,1.19922-.24023,2.87988-1.04004l2.31934,4.87988c-4.23926,2.7998-6.55957,3.28027-8.39941,3.28027-3.43994,0-6.24023-2-6.96045-5.36035-2.87988,3.36035-6.47998,5.36035-10.31982,5.36035-7.2002,0-12.08057-4.56055-12.08057-11.76074,0-6.47949,4.16016-12.08008,21.60059-14.95996v-2.64014c0-4.47998-1.91992-5.35986-4.64014-5.35986-2,0-4.3999.7998-10.48047,5.52002l-4.63965-5.2002ZM96.16748,57.03037c-9.28027,2.08008-12.24023,4.32031-12.24023,8.40039,0,2.95996,2.08008,4.71973,5.12012,4.71973,2,0,4.64014-1.28027,6.95996-3.75977l.16016-9.36035Z" fill="#004546" stroke-width="0"/><path d="M116.32049,27.41848l-9.52002,2.72955,9.55627,27.23425s2.12793-5.85443,4.82959-13.28723l-4.86584-16.67657Z" fill="#00aec3" stroke-width="0"/><polygon points="132.32617 13.44704 116.35675 57.38228 125.48382 57.38228 142.03338 16.37636 132.32617 13.44704" fill="#004546" stroke-width="0"/><polygon points="121.19183 44.08602 116.30054 27.41891 106.80047 30.14803 116.35669 57.38228 116.35675 57.38228 121.19183 44.08602" fill="url(#b)" mix-blend-mode="multiply" opacity=".5" stroke-width="0"/><rect y="-7.52314" width="142.03338" height="127.55974" fill="none" stroke-width="0"/></g></g></svg>