<?xml version="1.0" encoding="UTF-8"?><svg id="a" xmlns="http://www.w3.org/2000/svg" viewBox="0 0 160 160"><path d="M106.1902,4.30339l-26.18947,37.40256-20.18882-28.83258,10.35901-1.47969,9.82981,14.03818,15.83046-22.60816-15.17152-2.16727-.65966-.09573L10,10.5617v106.3011l1.35123,1.36492c30.50196,30.78222,65.95199,40.49154,67.44679,40.89031l1.20199.32128,1.20199-.32128c1.49477-.39877,36.94483-10.10809,67.44676-40.89031l1.35123-1.36492V10.5617l-43.8098-6.25831ZM140.66669,113.00278c-25.30552,24.85774-54.44141,34.81771-60.66667,36.74088-6.22526-1.92317-35.36117-11.88314-60.66667-36.74088V18.65545l24.8962-3.55626,4.80993,21.64514c.82843,3.72801,4.1299,6.38419,7.9489,6.39503l12.92933.03673.00013,4.51428c.00016,4.29381-2.37035,8.24313-6.17085,10.24136-2.36067,1.24117-4.8484,2.58911-6.3674,3.52777-4.50999,2.78522-8.74031,6.16077-11.95348,10.26873-4.40106,5.62641-6.21158,9.78521-6.73781,18.24441-.32544,5.24343.92413,11.57978,2.71713,15.51316,2.81685,6.17811,6.25063,10.1364,11.13789,14.31104,7.22714,6.17243,16.03426,8.90365,26.0808,8.90365,15.36578,0,27.37794-8.08478,31.89364-20.92068,1.81197-5.15031,1.83518-13.94858,2.44484-18.51728.53365-3.99945,3.79381-11.74255,4.18374-12.78191.39009-1.03935.81448-3.90446-2.21-4.9347-3.44743-1.17407-6.2872,1.98826-7.60683,3.49616-.88155,1.00743-6.45368,8.25197-10.06904,15.29426-3.8878,7.57323-7.59828,13.08655-11.8813,15.22177-8.83858,4.40692-16.11243-.9922-17.02474-1.82049-3.368-3.05908-6.44716-6.66447-5.94016-14.38437.36133-5.50393,4.95791-10.60098,9.92509-14.01978,0,0,8.83374-6.64653,12.59693-9.47348,2.10922-1.58439,3.97874-3.56602,5.21496-6.56569l7.62878,16.07588c.69318,1.4607,2.45013,2.06823,3.89754,1.34771l.42729-.21271c1.33887-.6665,1.94772-2.2446,1.40347-3.63765l-11.59878-29.68785.00011-.0036,11.10371-.03489c3.81815-.01197,7.11834-2.66774,7.94664-6.39503l4.81051-21.64699,24.8962,3.55626v94.34734Z" fill="#253464"/></svg>