<?xml version="1.0" encoding="UTF-8"?><svg id="a" xmlns="http://www.w3.org/2000/svg" viewBox="0 0 512 512"><path d="M256.00235,132.83506l-64.93473-92.73394,33.31844-4.75911,31.61631,45.1508L306.91907,7.77847l-48.79725-6.97067-2.12171-.3078L30.85394,32.66597l-.00011,341.89548,4.34607,4.38997c98.10565,99.00464,212.12617,130.23269,216.93399,131.51525l3.86604,1.03332,3.86596-1.03332c4.80782-1.28255,118.82836-32.51053,216.93408-131.5151l4.34608-4.38997.00011-341.89548-140.90866-20.12852-84.23515,120.29746ZM355.57885,116.88308l15.47241-69.62302,80.07548,11.43792-.0001,303.44868c-81.39203,79.94971-175.10392,111.98388-195.12669,118.16934-20.02276-6.18547-113.73471-38.2197-195.12661-118.16946l.0001-303.44868,80.0754-11.43787,15.47059,69.61711c2.66453,11.99035,13.28331,20.53342,25.56662,20.56821l41.58556.11824.00042,14.51924c.0005,13.81014-7.62394,26.5123-19.84776,32.93921-7.59287,3.99187-15.59426,8.32734-20.47995,11.34632-14.50582,8.95808-28.11209,19.81482-38.44685,33.02722-14.15553,18.09618-19.97885,31.47208-21.6714,58.67936-1.04664,16.8644,2.97241,37.24397,8.73936,49.89486,9.05995,19.87061,20.10425,32.60164,35.82359,46.0285,23.24518,19.85233,51.57214,28.63677,83.88558,28.63678,49.422.00002,88.05767-26.00298,102.58186-67.28697,5.82797-16.5649,5.90263-44.86271,7.86354-59.55697,1.71641-12.86339,12.20233-37.76748,13.45648-41.11034,1.25466-3.34285,2.61968-12.55788-7.10818-15.87145-11.08823-3.77616-20.22199,6.39483-24.46642,11.24468-2.83541,3.2402-20.75746,26.54073-32.38581,49.19081-12.50463,24.35773-24.43893,42.09017-38.21471,48.95766-28.42819,14.17395-51.82359-3.19122-54.75793-5.85526-10.83273-9.83891-20.73645-21.4349-19.10577-46.26435,1.16216-17.70223,15.94651-34.09584,31.92279-45.09171,0,0,28.41262-21.37716,40.51643-30.46947,6.78405-5.09586,12.79711-11.46946,16.77326-21.11719l24.53698,51.70474c2.22953,4.69802,7.88053,6.65203,12.53593,4.33463l1.37433-.68414c4.30621-2.14366,6.26458-7.21929,4.51407-11.69974l-37.30598-95.48489.00034-.01151,35.71367-.11221c12.2806-.0385,22.89524-8.58021,25.55935-20.56828Z" fill="#253464"/></svg>